<?xml version="1.0" encoding="UTF-8"?>
<svg id="Calque_2" data-name="Calque 2" xmlns="http://www.w3.org/2000/svg" viewBox="0 0 3266.87 3430.34">
  <defs>
    <style>
      .cls-1 {
        fill: #fff;
      }

      .cls-2 {
        fill: #b51636;
      }
    </style>
  </defs>
  <g id="Calque_1-2" data-name="Calque 1">
    <g>
      <rect class="cls-2" width="3266.87" height="3430.34" rx="18.53" ry="18.53"/>
      <g>
        <path class="cls-1" d="M1665.21,692.94l-23.81,97.2c-4.74,72.13-31.17,119.28-92.75,162.75-41.5,29.29-82.82,65.27-143.95,65.25-105.68-.04-208.16-102.19-178.02-204.76l23.65-80.48c8.38-28.5,20.87-55.87,31.75-83.36,18.15-45.87,36.09-89.93,59.46-133.56l29.48-55.04c13.77-25.71,24.84-53.45,35.44-82.17l21.16-25.4c11.42-32.17,22.76-59.03,58.44-75.99-2.5,95.15-54.68,173.73-61.76,254.19-2,22.7-10.27,39.83-34.62,52.26l4.64,106.35c34.94,27.88,68.03,40.75,113.06,39.8,53-1.12,110.39-25.54,127.29-76.2,5.54-16.6.71-39.77,36.86-39.12l.53,58.75-22.14-1.88c-5.25-.44-13.43,10.62-17,16.65l32.3,4.76Z"/>
        <g>
          <path class="cls-1" d="M1942.54,2767.75c4.48,41.34-3.75,84.05-9.8,121.68l2.21,39.51-10.82,105.86-12.88-36.45c9.76-44.97,6.23-85.08,1.74-129.8l-4.25-42.34-1.58-82.9c-6.29-22.56-4.67-44.98,3.71-64.57-4.56-18.94-4.85-41.52-2.21-65.14l-15.2-261.48-4.56-145.52-2.98-332.05.31-108.81c-7.72,10.2-8.2,10.74-8.61,12.84l-1.61,8.31c-.39,2.03-9.5-9.5-8.68-12.09,10.47-33.21,7.96-100.15-11.78-133.62,4.53-14.13,2.19-17.69,1.02-32.16-2.58-32.05.11-70.84,4.56-102.84,13.83-11.39,18.12-22.08,11.64-38.55,48.69-122.01,117.89-245.52,229.68-328.73,48.97-36.45,123.5-45.03,180.99-59.37l149.46-37.27c8.13-2.03,21.41-14.26,21.43-21.37-73.53-60.15-190.31-59.09-260.03,7.58-34.19,32.7-65.09,67.79-111.45,88.23-20.89-12.67-16.63-39.81-7.68-57.84,35.04-70.56,77.2-129.01,127.66-190.91,58.72-72.04,121.56-147.26,216.95-179.03,35.74-11.9,90.87-19.34,128.63-15.58,60.47,6.02,117.54,39.89,162.03,74.26l122.88,94.92,90.07,91.15c11.56,11.7,26.09,33.42,14.7,48.64l-98.49,131.68c-31.65,42.31-68.83,91.74-118.12,117.17-81.34,9.45-156.13,24.46-235.51,41.08l-364.69,76.35c-7.32,64.69-7.94,120.1-9.73,181.31l-3.68,125.42c-3.2,109.16,4.75,215.47,5.16,324.47l.53,140.37c.18,47.84-4.46,95.14-7.4,143.67-6.04,99.78,9.06,195.87,9.13,295.73l.21,284.19-69.49,92.94-67.9,78.04,16.26-51.3c98.3-36.76,63.93-219.4,65.3-218.84l-21.67-8.94c-2.48-34.33-13.57-70.89-35.67-104.25l-28.92,52.66,13.01,28.81-12.45-12.37c-1.16-1.16-36.4,21.26-31.42,67.24ZM2029.62,2661.44l29.4,72.34,3.93-254.77-5.32-111.76-5.51-62.81-12.8-163.51-31.01-12.76c-.58,40.27-5.65,77.94-13.98,120.52-15.59,79.76,3.08,132.27-20.85,174.84l4.22,97.06c.95,21.82,17.89,54.61,26.61,76.71l25.31,64.12Z"/>
          <path class="cls-1" d="M1886.62,2603.37c1.68,40.95,1.2,78.43-9.88,115.62-15.16-56.54-6.8-106.25-10.18-159.16l-11.72-183.64c-4.62-72.37-2.26-143.76-1.97-213.81l9.09,4.29,6.45,85.77c3.81,50.62-2.3,101.1,3.6,151.2l9.86,83.75,4.75,115.97Z"/>
          <path class="cls-1" d="M1890.51,3103.54c9.86-13.03,11.62-19.94,32.17-26.19-13.57,31.88-25,45.95-50.22,75.61l.39-29.08,1.68-378.03c23.16,19.46,8.73,50.47,11.19,74.34l10.2,99.05c2.29,22.21-17,55.44,1,80.81-11.94,28.82-12.37,61.79-6.4,103.5Z"/>
          <path class="cls-1" d="M2014.98,2730.15l-2.57,21.48c-.52,4.38-16.19,6.81-17.84,2.69-1.64-4.11-3.02-13.01-1.54-17.74,4.37-13.93,2.95-40.49,4.51-53.84l2.09-17.86c.36-3.05,9.66,6.86,10.95,9.62,4.56,14.07,6.65,36.71,4.39,55.64Z"/>
        </g>
        <path class="cls-1" d="M1473.69,1576.94c-76.9,62.33-143.7,123.39-196.98,201.74-25.75-10.77-56.64-20.48-76.66-35.99-94.48-73.19-177.72-150.06-264.67-230.51-85.01-78.66-160.95-154.24-246.84-244.65l-6.8,241.96c-2.8,99.55-1.4,195.11,1.03,293.55l5.8,234.99c2.84,115.14-1.64,226.98-8.72,342.63-10.16,166.14-11.15,328.16-7.22,494.94-93.83,81.48-155.44,176.45-259.17,252.98l3.2-77.6c3.73-90.67-4.62-177.99.53-269.05,10.25-181.03,11.31-354.86,12.79-535.32l4.96-601.95c1.13-137.07-1.97-267.3-6.86-403.86l-9.41-262.94c9.69-20.34,21.17-45.14,32.45-64.17l56.62-95.45c22.25-37.5,57.11-76.42,84.8-109.64,23.64,6.78,30.96,8.68,56.51,13.31l24.46,71.49,101.14,116.3c45.75,52.61,95.67,101.82,148.92,148.84l137.12,121.09,100.11,82.26,78.29,66.89,95.52,80.04c32.54,27.27,69.86,52.92,109,67.05,53.63-48.47,101.8-87.08,156.05-128.09l67.8-51.25,163.59-123.3,96.44-77.82c4.52-3.65,17.1-8.11,22.65-9.14,6.9-1.28,11.84,18.71,7.73,23.98l-30.47,39.14-97.4,125.37-53.97,63.23c-45.85,53.71-113.64,85.99-168.89,130.77l-133.44,108.17ZM736.43,1151.37c-26.37-34.36-32.65-62.12-35.14-103.32-13.79,19.06-15.66,44.34-10.44,67.56,3.06,13.59,32.32,32.05,45.58,35.76ZM558.1,2603.15c20.72,7.51,26.7,21.85,25.19,37.67-1.2,12.5-13.81,31.11-21.04,34.94-7.03-23.34-8.98-33.13-27.59-36.81,6.41,41.68,9.87,85,24.43,118.09l22.02,50.08c5.69-9.24,10.14-28.82,10.71-43.04l7.22-178.48,5.41-94.75,15.18-153.39,20.55-235.13,7.11-137.43c4.08-78.92.98-156.06-1.35-235.18-1.42-48.34-6.02-93.94-15.47-140.72-19.25,126.03,9.18,287.13-5.13,397.44l-11.93,91.94c-62.9,11.7-60.89,69.52-57.7,125.36l5.91,103.23,16.38,85.29c.8,4.16-1.39,15.13,1.98,15.56l13.57,1.73-13.25,41.7c14.05,17.62,15.98,43.42,1.18,59.16l10.54,18.72c2.35,4.17-10.7,13.74-15.7,15.16-24.43,6.94-39.4,51.16-18.22,58.84ZM456.28,2201.07l-2.49-153.21c-.8-49.09-6.21-97.95-3.65-145.66l3.38-62.82.33-16.47c.07-3.42-9.18-7.66-13.08-8.61l3.09,675.79,8.98-152.92,1.43-66.26,2.01-69.85Z"/>
      </g>
    </g>
  </g>
</svg>