<?xml version="1.0" encoding="UTF-8"?>
<svg id="Calque_2" data-name="Calque 2" xmlns="http://www.w3.org/2000/svg" viewBox="0 0 11091.48 3430.34">
  <defs>
    <style>
      .cls-1 {
        fill: #fff;
      }

      .cls-2 {
        fill: #b51636;
      }
    </style>
  </defs>
  <g id="Calque_1-2" data-name="Calque 1">
    <g>
      <g>
        <rect class="cls-2" x="7824.61" width="3266.87" height="3430.34" rx="18.53" ry="18.53"/>
        <g>
          <path d="M2658.73,1913.16l81.67-21.2c140-36.34,180.84-199.25,173.14-339.73-253.63-3.26-455.81,25.33-675.48-110.49-262.84-162.52-291.1-539.43-74.49-762.45,103.22-106.27,243.03-182.62,396.57-183.8l617.37-4.72c8.08,36.09,6.26,61.1,6.25,93.62l-.18,802.32c0,14.97,13.15,29.39,26.06,29.32l410.7-2.25c68-.37,114.53-51.37,114.57-116.14l.26-450.55c.04-69.25-62.65-80.75-133.31-98.91l2.77-106.21,426.06-110.45,3.81,761.4c.35,70.9,55.96,122.63,122.57,122.55l583.84-.75c120.91-.16,235.4-83.1,308.14-184.72-28.24-186.05-53.34-511.85-234.91-572.82-157.15-52.77-326.88-7.59-458.99,83.49-8.48,5.85-33.92,10.54-34.04,1.86l-1.49-108.83c51.91-49.38,109.75-80.6,173.35-109.16,85.19-38.25,169.62-49.29,263.59-49.5,160.55-.36,312.88,58.59,415.35,186.33,66.83,83.3,110.23,184.2,130.16,289.87l49.44,262.15c17.2,91.19,57.28,201.81,145.37,201.73l338.61-.28c61.51-.05,110.75-47.65,110.87-113.13l1.38-757.63c.03-14.92,14.62-36.9,29.82-36.81l485.21,2.84c150.93.88,294.67,56.41,406.8,152.72,108.43,91.12,166.83,211.93,167.36,355.07l1.95,532.2-691.9-1.95c-72.03-.2-127.29-52.21-180.24-99.04-61.01,50.63-129.03,98.73-212.26,99.05l-576.89,2.22c-111.82-6.71-199.75-77.18-268.99-161.97-82.49,73.12-183.1,155.86-301.62,156.79l-642.21,5.03c-84.11.66-151.94-37.92-211.03-100.96-61.92,49.79-128.77,98.21-210.94,98.7l-559.22,3.3c3.1,152.17-45.54,312.18-170.97,391.97-105.89,58.71-218.25,84.35-342.9,77.75l-10.96-107.84ZM2803.34,1416.53c38.6.51,74.97-3.04,110.77-14.2v-769.22s-229.16.06-229.16.06c-178.48.05-318.37,131.81-353.91,304-18.12,87.77-11.09,172.96,19.94,258.69,45.21,124.89,161.33,216.85,296.45,218.63l155.91,2.05ZM6739.23,1415.58l-.71-406.39c-2.25-167.79-112.85-308.6-270.96-358.26-73.71-11.37-141.88-12.96-218.63-10.53l-.25,672.6c9.29,54.14,55.42,101.02,115.23,101.23l375.32,1.35Z"/>
          <path d="M593.71,562.31c5.01,35.4,5.41,69.3,4.61,105.4l-81.41,24.13c-34.19,10.13-58.17,43.53-58.15,82.11l.29,523.48c.04,63.39,53.3,117.4,119.49,117.46l875.6.7c-.97-225.71,44.56-430.43-205.04-480.48l-291.23-1.5c-3.33-16.92-6.99-43.02-3.13-55.65,28.66-93.9,66.43-177.41,119.38-258.38,143.42-219.29,414.52-271.24,656.33-187.63l.64,119.25c-148.03-34.1-297.99-54.84-394.13,65.35-42.6,53.26-71.16,116.24-83.33,186.34,181.55,30.34,325.81,137.36,414.16,291.8,90.02,157.36,107.3,271.15,100.34,455.99l-1264.58.41c-107.12.04-208.24-37.46-270.72-124.68-43.98-61.39-68.69-139.14-68.87-218.07l-1.8-754.44,431.54,108.39Z"/>
          <path d="M3472.89,114.94c12.87,54.09-4,117.4-49.24,150.55-48.58,35.6-113.68,34.9-163.61,2.59-50.19-32.48-70.78-96.66-54.48-153.11l267.33-.03Z"/>
          <path d="M3884.88,114.83c15.34,54.83-3.42,117.16-48.76,149.26-49.74,35.22-114.07,38.55-162.77,4.69-48.95-34.04-70.68-98.78-53.93-153.84l265.46-.1Z"/>
          <path d="M5311.28,307.38c-2.8-18.08,2.79-51.04,15.83-66.49,8.93-10.58,42.29-13.4,56.27-14.29l83.9-5.35,118.17-14.35,179.37-3.25c-22.85,55.51-78.46,79.09-135.55,82.84l-317.98,20.88Z"/>
        </g>
        <g>
          <path class="cls-1" d="M9489.82,692.94l-23.81,97.2c-4.74,72.13-31.17,119.28-92.75,162.75-41.5,29.29-82.82,65.27-143.95,65.25-105.68-.04-208.16-102.19-178.02-204.76l23.65-80.48c8.38-28.5,20.87-55.87,31.75-83.36,18.15-45.87,36.09-89.93,59.46-133.56l29.48-55.04c13.77-25.71,24.84-53.45,35.44-82.17l21.16-25.4c11.42-32.17,22.76-59.03,58.44-75.99-2.5,95.15-54.68,173.73-61.76,254.19-2,22.7-10.27,39.83-34.62,52.26l4.64,106.35c34.94,27.88,68.03,40.75,113.06,39.8,53-1.12,110.39-25.54,127.29-76.2,5.54-16.6.71-39.77,36.86-39.12l.53,58.75-22.14-1.88c-5.25-.44-13.43,10.62-17,16.65l32.3,4.76Z"/>
          <g>
            <path class="cls-1" d="M9767.14,2767.75c4.48,41.34-3.75,84.05-9.8,121.68l2.21,39.51-10.82,105.86-12.88-36.45c9.76-44.97,6.23-85.08,1.74-129.8l-4.25-42.34-1.58-82.9c-6.29-22.56-4.67-44.98,3.71-64.57-4.56-18.94-4.85-41.52-2.21-65.14l-15.2-261.48-4.56-145.52-2.98-332.05.31-108.81c-7.72,10.2-8.2,10.74-8.61,12.84l-1.61,8.31c-.39,2.03-9.5-9.5-8.68-12.09,10.47-33.21,7.96-100.15-11.78-133.62,4.53-14.13,2.19-17.69,1.02-32.16-2.58-32.05.11-70.84,4.56-102.84,13.83-11.39,18.12-22.08,11.64-38.55,48.69-122.01,117.89-245.52,229.68-328.73,48.97-36.45,123.5-45.03,180.99-59.37l149.46-37.27c8.13-2.03,21.41-14.26,21.43-21.37-73.53-60.15-190.31-59.09-260.03,7.58-34.19,32.7-65.09,67.79-111.45,88.23-20.89-12.67-16.63-39.81-7.68-57.84,35.04-70.56,77.2-129.01,127.66-190.91,58.72-72.04,121.56-147.26,216.95-179.03,35.74-11.9,90.87-19.34,128.63-15.58,60.47,6.02,117.54,39.89,162.03,74.26l122.88,94.92,90.07,91.15c11.56,11.7,26.09,33.42,14.7,48.64l-98.49,131.68c-31.65,42.31-68.83,91.74-118.12,117.17-81.34,9.45-156.13,24.46-235.51,41.08l-364.69,76.35c-7.32,64.69-7.94,120.1-9.73,181.31l-3.68,125.42c-3.2,109.16,4.75,215.47,5.16,324.47l.53,140.37c.18,47.84-4.46,95.14-7.4,143.67-6.04,99.78,9.06,195.87,9.13,295.73l.21,284.19-69.49,92.94-67.9,78.04,16.26-51.3c98.3-36.76,63.93-219.4,65.3-218.84l-21.67-8.94c-2.48-34.33-13.57-70.89-35.67-104.25l-28.92,52.66,13.01,28.81-12.45-12.37c-1.16-1.16-36.4,21.26-31.42,67.24ZM9854.23,2661.44l29.4,72.34,3.93-254.77-5.32-111.76-5.51-62.81-12.8-163.51-31.01-12.76c-.58,40.27-5.65,77.94-13.98,120.52-15.59,79.76,3.08,132.27-20.85,174.84l4.22,97.06c.95,21.82,17.89,54.61,26.61,76.71l25.31,64.12Z"/>
            <path class="cls-1" d="M9711.23,2603.37c1.68,40.95,1.2,78.43-9.88,115.62-15.16-56.54-6.8-106.25-10.18-159.16l-11.72-183.64c-4.62-72.37-2.26-143.76-1.97-213.81l9.09,4.29,6.45,85.77c3.81,50.62-2.3,101.1,3.6,151.2l9.86,83.75,4.75,115.97Z"/>
            <path class="cls-1" d="M9715.12,3103.54c9.86-13.03,11.62-19.94,32.17-26.19-13.57,31.88-25,45.95-50.22,75.61l.39-29.08,1.68-378.03c23.16,19.46,8.73,50.47,11.19,74.34l10.2,99.05c2.29,22.21-17,55.44,1,80.81-11.94,28.82-12.37,61.79-6.4,103.5Z"/>
            <path class="cls-1" d="M9839.59,2730.15l-2.57,21.48c-.52,4.38-16.19,6.81-17.84,2.69-1.64-4.11-3.02-13.01-1.54-17.74,4.37-13.93,2.95-40.49,4.51-53.84l2.09-17.86c.36-3.05,9.66,6.86,10.95,9.62,4.56,14.07,6.65,36.71,4.39,55.64Z"/>
          </g>
          <path class="cls-1" d="M9298.3,1576.94c-76.9,62.33-143.7,123.39-196.98,201.74-25.75-10.77-56.64-20.48-76.66-35.99-94.48-73.19-177.72-150.06-264.67-230.51-85.01-78.66-160.95-154.24-246.84-244.65l-6.8,241.96c-2.8,99.55-1.4,195.11,1.03,293.55l5.8,234.99c2.84,115.14-1.64,226.98-8.72,342.63-10.16,166.14-11.15,328.16-7.22,494.94-93.83,81.48-155.44,176.45-259.17,252.98l3.2-77.6c3.73-90.67-4.62-177.99.53-269.05,10.25-181.03,11.31-354.86,12.79-535.32l4.96-601.95c1.13-137.07-1.97-267.3-6.86-403.86l-9.41-262.94c9.69-20.34,21.17-45.14,32.45-64.17l56.62-95.45c22.25-37.5,57.11-76.42,84.8-109.64,23.64,6.78,30.96,8.68,56.51,13.31l24.46,71.49,101.14,116.3c45.75,52.61,95.67,101.82,148.92,148.84l137.12,121.09,100.11,82.26,78.29,66.89,95.52,80.04c32.54,27.27,69.86,52.92,109,67.05,53.63-48.47,101.8-87.08,156.05-128.09l67.8-51.25,163.59-123.3,96.44-77.82c4.52-3.65,17.1-8.11,22.65-9.14,6.9-1.28,11.84,18.71,7.73,23.98l-30.47,39.14-97.4,125.37-53.97,63.23c-45.85,53.71-113.64,85.99-168.89,130.77l-133.44,108.17ZM8561.04,1151.37c-26.37-34.36-32.65-62.12-35.14-103.32-13.79,19.06-15.66,44.34-10.44,67.56,3.06,13.59,32.32,32.05,45.58,35.76ZM8382.71,2603.15c20.72,7.51,26.7,21.85,25.19,37.67-1.2,12.5-13.81,31.11-21.04,34.94-7.03-23.34-8.98-33.13-27.59-36.81,6.41,41.68,9.87,85,24.43,118.09l22.02,50.08c5.69-9.24,10.14-28.82,10.71-43.04l7.22-178.48,5.41-94.75,15.18-153.39,20.55-235.13,7.11-137.43c4.08-78.92.98-156.06-1.35-235.18-1.42-48.34-6.02-93.94-15.47-140.72-19.25,126.03,9.18,287.13-5.13,397.44l-11.93,91.94c-62.9,11.7-60.89,69.52-57.7,125.36l5.91,103.23,16.38,85.29c.8,4.16-1.39,15.13,1.98,15.56l13.57,1.73-13.25,41.7c14.05,17.62,15.98,43.42,1.18,59.16l10.54,18.72c2.35,4.17-10.7,13.74-15.7,15.16-24.43,6.94-39.4,51.16-18.22,58.84ZM8280.89,2201.07l-2.49-153.21c-.8-49.09-6.21-97.95-3.65-145.66l3.38-62.82.33-16.47c.07-3.42-9.18-7.66-13.08-8.61l3.09,675.79,8.98-152.92,1.43-66.26,2.01-69.85Z"/>
        </g>
      </g>
      <g>
        <path d="M1200.88,3236.79h-428.3v-48.5c15.48-.45,35.4-2.05,59.77-4.78,24.36-2.73,41.1-6.6,50.21-11.62,14.11-8.64,24.47-18.55,31.08-29.71,6.59-11.16,9.9-25.16,9.9-42.01v-704.95h-10.25l-330.62,825.86h-34.15l-314.91-842.93h-8.88v578.58c0,56.01,3.52,98.6,10.59,127.73,7.06,29.15,17.87,50.1,32.45,62.84,10.01,9.57,30.74,18.68,62.16,27.32,31.42,8.66,51.92,13.22,61.48,13.66v48.5H0v-48.5c20.49-1.81,42.01-5.22,64.55-10.24,22.55-5,39.96-12.52,52.26-22.55,15.93-12.74,26.86-32.33,32.79-58.74,5.91-26.41,8.88-70.59,8.88-132.53v-495.92c0-28.7-3.42-52.14-10.25-70.36-6.83-18.21-16.63-33.01-29.37-44.4-14.12-12.3-31.42-21.41-51.92-27.32-20.49-5.92-40.76-9.33-60.8-10.25v-48.5h330.5l277.66,727.58,237.03-608.64c8.65-22.33,16.03-45.68,22.18-70.06,6.15-24.37,9.44-40.66,9.9-48.87h316.09v48.5c-12.76.46-29.03,2.51-48.84,6.14-19.81,3.65-34.27,7.07-43.37,10.25-15.49,5.46-25.96,14.58-31.42,27.32-5.46,12.76-8.2,26.64-8.2,41.67v698.81c0,15.95,2.73,29.38,8.2,40.31s15.93,20.49,31.42,28.68c8.2,4.56,22.76,8.78,43.72,12.64,20.94,3.87,37.57,6.04,49.87,6.48v48.5Z"/>
        <path d="M1970.73,2893.19c0,47.37-7.53,93.93-22.56,139.7-15.05,45.76-36.47,84.6-64.28,116.47-31.46,36.44-67.94,63.52-109.41,81.29-41.49,17.75-87.99,26.64-139.5,26.64-42.85,0-83.66-8.09-122.4-24.25-38.74-16.16-73.17-39.73-103.26-70.69-29.63-30.51-53.22-67.74-70.77-111.69-17.55-43.94-26.32-93.24-26.32-147.89,0-105.2,30.65-191.27,91.97-258.22,61.31-66.94,141.66-100.41,241.04-100.41s172.2,31.76,233.52,95.29c61.31,63.52,91.97,148.12,91.97,253.76ZM1829.33,2894.57c0-34.16-3.43-70.24-10.27-108.28-6.84-38.02-17.11-70.24-30.79-96.65-14.6-28.24-33.77-50.9-57.49-67.97-23.73-17.08-52.7-25.62-86.91-25.62s-65.13,8.66-89.99,25.96c-24.87,17.32-45.05,40.99-60.56,71.04-14.6,27.78-24.87,59.43-30.8,94.95-5.94,35.52-8.89,69.91-8.89,103.14,0,43.72,3.53,84.14,10.61,121.25,7.06,37.12,18.36,70.25,33.88,99.38,15.51,29.15,35.01,52.04,58.51,68.66,23.49,16.63,52.58,24.93,87.25,24.93,57.03,0,102.2-27.55,135.5-82.66,33.3-55.09,49.96-131.15,49.96-228.15Z"/>
        <path d="M2789.76,3224.5l-219.93,15.03-10.28-9.56v-85.39h-4.09c-10.92,11.39-23.2,23.57-36.83,36.55-13.64,12.98-29.32,24.71-47.05,35.18-20.47,12.3-40.25,21.63-59.35,28.01-19.09,6.37-46.14,9.56-81.14,9.56-59.57,0-104.92-19.44-136.06-58.34-31.15-38.89-46.71-95.41-46.71-169.57v-322.08c0-16.37-3.09-30.13-9.28-41.27-6.19-11.14-15.24-20.81-27.15-29.01-8.25-5.46-18.56-9.44-30.94-11.93s-25.43-4.2-39.18-5.13v-45.08l224.74-16.39,10.25,9.56v467.92c0,48.74,10.93,85.39,32.79,109.98s48.04,36.89,78.56,36.89c25.04,0,47.36-3.86,66.94-11.59,19.58-7.72,35.97-16.83,49.18-27.3,12.3-9.54,23.11-19.66,32.45-30.35,9.33-10.69,16.5-20.58,21.52-29.69v-381.38c0-15.01-3.19-28.32-9.56-39.92-6.38-11.59-15.26-21.48-26.64-29.67-8.2-5.46-20.39-8.76-36.54-9.9-16.17-1.13-34.28-2.15-54.31-3.07v-45.08l245.2-16.39,10.28,9.56v534.27c0,15.48,3.18,28.67,9.56,39.59,6.37,10.92,15.25,20.24,26.64,27.97,8.2,5.02,17.98,8.31,29.37,9.9,11.38,1.59,23.91,2.62,37.57,3.06v45.08Z"/>
        <path d="M3605.37,3236.79h-331.3v-45.08c10.47-.91,22.08-1.81,34.84-2.73,12.74-.91,23.23-2.73,31.42-5.46,12.74-4.1,22.2-11.27,28.35-21.52,6.15-10.24,9.22-23.56,9.22-39.96v-346.33c0-47.81-11.3-84.7-33.9-110.65-22.59-25.97-50.1-38.94-82.51-38.94-23.73,0-45.76,3.76-66.07,11.27-20.32,7.52-38.46,16.74-54.43,27.67-15.52,11.38-27.39,22.77-35.61,34.15-8.22,11.39-14.6,20.95-19.17,28.7v387.31c0,15.49,3.08,28.24,9.22,38.25,6.15,10.02,15.59,17.76,28.35,23.23,10.01,4.56,20.38,7.97,31.08,10.25,10.69,2.28,22.42,3.87,35.18,4.78v45.08h-329.93v-45.08c10.4-.91,21.25-1.93,32.57-3.07,11.3-1.13,20.8-2.85,28.5-5.13,12.66-4.1,22.15-11.28,28.49-21.53,6.33-10.24,9.5-23.57,9.5-39.99v-784.75c0-15.5-3.53-30.98-10.59-46.48-7.07-15.5-16.29-27.12-27.67-34.87-8.2-5.91-22.66-10.13-43.37-12.64-20.73-2.51-37.46-4.21-50.21-5.13v-43.72l249.33-15.03,9.56,10.25v469.97h2.73c15.05-15.04,28.73-28.35,41.05-39.97,12.32-11.61,28.51-23.79,48.59-36.54,17.33-10.93,37.74-20.04,61.23-27.32,23.49-7.28,49.83-10.93,79.02-10.93,60.21,0,106.51,19.01,138.89,57.03,32.38,38.03,48.59,92.8,48.59,164.29v350.42c0,15.95,2.86,28.81,8.59,38.59,5.73,9.8,15.25,17.42,28.55,22.89,10.54,4.1,20.06,7.17,28.54,9.22,8.49,2.05,19.61,3.53,33.37,4.44v45.08Z"/>
        <path d="M4102.67,3207.42c-29.61,12.3-57.61,22.67-84.02,31.08-26.42,8.42-58.75,12.64-97,12.64-56.47,0-96.21-14.24-119.2-42.69-23-28.46-34.5-68.65-34.5-120.56v-456.31h-121.59v-65.58h124.32v-209.71h124.32v209.71h193.32v65.58h-191.95v376.38c0,28.24,1.02,51.81,3.08,70.7,2.05,18.91,6.94,35.42,14.68,49.52,7.28,13.22,18.21,23.23,32.79,30.06,14.57,6.84,34.15,10.25,58.75,10.25,11.38,0,28.11-1.03,50.21-3.07,22.09-2.05,37.68-4.66,46.79-7.86v49.86Z"/>
        <path d="M4807.62,3224.5c-21.41,7.75-40.2,14-56.35,18.79-16.17,4.78-34.5,7.17-54.99,7.17-35.52,0-63.87-8.32-85.05-24.93-21.17-16.62-34.73-40.87-40.64-72.76h-4.1c-29.61,32.79-61.37,57.84-95.29,75.15-33.93,17.3-74.8,25.95-122.62,25.95-50.55,0-92.11-15.48-124.66-46.45-32.57-30.96-48.84-71.49-48.84-121.58,0-25.97,3.64-49.18,10.93-69.68,7.28-20.49,18.21-38.93,32.79-55.33,11.38-13.66,26.41-25.84,45.08-36.55,18.67-10.7,36.2-19.23,52.6-25.62,20.49-7.74,62.04-22.08,124.67-43.03,62.61-20.94,104.85-37.33,126.71-49.18v-67.62c0-5.92-1.26-17.31-3.76-34.16-2.51-16.84-7.86-32.79-16.05-47.81-9.11-16.85-21.98-31.54-38.59-44.07-16.63-12.51-40.2-18.78-70.7-18.78-20.95,0-40.42,3.53-58.41,10.58-17.99,7.06-30.63,14.46-37.91,22.21,0,9.11,2.15,22.54,6.49,40.3,4.33,17.76,6.49,34.15,6.49,49.18,0,15.95-7.17,30.52-21.52,43.72-14.34,13.22-34.27,19.81-59.77,19.81-22.78,0-39.51-8.08-50.21-24.25-10.71-16.16-16.05-34.26-16.05-54.31s7.4-40.99,22.2-60.11c14.79-19.13,34.04-36.2,57.72-51.24,20.49-12.74,45.31-23.56,74.46-32.44,29.14-8.88,57.6-13.32,85.39-13.32,38.25,0,71.61,2.63,100.08,7.86,28.45,5.24,54.3,16.51,77.53,33.82,23.23,16.85,40.87,39.73,52.94,68.65,12.06,28.92,18.1,66.15,18.1,111.69,0,65.12-.68,122.84-2.05,173.16-1.37,50.33-2.05,105.32-2.05,164.97,0,17.76,3.08,31.88,9.22,42.35,6.15,10.48,15.59,19.36,28.35,26.64,6.83,4.09,17.64,6.38,32.45,6.82,14.79.46,29.94.69,45.42.69v43.72ZM4569.22,2863.82c-38.71,11.41-72.64,22.6-101.78,33.54-29.15,10.95-56.25,24.64-81.29,41.08-22.78,15.52-40.76,33.9-53.96,55.12-13.21,21.22-19.81,46.44-19.81,75.64,0,37.88,9.91,65.72,29.71,83.52,19.81,17.81,44.97,26.7,75.48,26.7,32.33,0,60.8-7.87,85.39-23.62,24.59-15.75,45.31-34.34,62.16-55.79l4.1-236.18Z"/>
        <path d="M5531.7,2893.19c0,47.37-7.53,93.93-22.56,139.7-15.05,45.76-36.47,84.6-64.28,116.47-31.46,36.44-67.94,63.52-109.41,81.29-41.49,17.75-87.99,26.64-139.5,26.64-42.85,0-83.66-8.09-122.4-24.25-38.74-16.16-73.17-39.73-103.26-70.69-29.63-30.51-53.22-67.74-70.77-111.69-17.55-43.94-26.32-93.24-26.32-147.89,0-105.2,30.65-191.27,91.97-258.22,61.31-66.94,141.66-100.41,241.04-100.41s172.2,31.76,233.52,95.29c61.31,63.52,91.97,148.12,91.97,253.76ZM5390.3,2894.57c0-34.16-3.43-70.24-10.27-108.28-6.84-38.02-17.11-70.24-30.79-96.65-14.6-28.24-33.77-50.9-57.49-67.97-23.73-17.08-52.7-25.62-86.91-25.62s-65.13,8.66-89.99,25.96c-24.87,17.32-45.05,40.99-60.56,71.04-14.6,27.78-24.87,59.43-30.8,94.95-5.94,35.52-8.89,69.91-8.89,103.14,0,43.72,3.53,84.14,10.61,121.25,7.06,37.12,18.36,70.25,33.88,99.38,15.51,29.15,35.01,52.04,58.51,68.66,23.49,16.63,52.58,24.93,87.25,24.93,57.03,0,102.2-27.55,135.5-82.66,33.3-55.09,49.96-131.15,49.96-228.15Z"/>
        <path d="M6350.73,3224.5l-219.93,15.03-10.28-9.56v-85.39h-4.09c-10.92,11.39-23.2,23.57-36.83,36.55-13.64,12.98-29.32,24.71-47.05,35.18-20.47,12.3-40.25,21.63-59.35,28.01-19.09,6.37-46.14,9.56-81.14,9.56-59.57,0-104.92-19.44-136.06-58.34-31.15-38.89-46.71-95.41-46.71-169.57v-322.08c0-16.37-3.09-30.13-9.28-41.27-6.19-11.14-15.24-20.81-27.15-29.01-8.25-5.46-18.56-9.44-30.94-11.93s-25.43-4.2-39.18-5.13v-45.08l224.74-16.39,10.25,9.56v467.92c0,48.74,10.93,85.39,32.79,109.98,21.86,24.59,48.04,36.89,78.56,36.89,25.04,0,47.36-3.86,66.94-11.59,19.58-7.72,35.97-16.83,49.18-27.3,12.3-9.54,23.11-19.66,32.45-30.35,9.33-10.69,16.5-20.58,21.52-29.69v-381.38c0-15.01-3.19-28.32-9.56-39.92-6.38-11.59-15.26-21.48-26.64-29.67-8.2-5.46-20.39-8.76-36.54-9.9-16.17-1.13-34.28-2.15-54.31-3.07v-45.08l245.2-16.39,10.28,9.56v534.27c0,15.48,3.18,28.67,9.56,39.59,6.37,10.92,15.25,20.24,26.64,27.97,8.2,5.02,17.98,8.31,29.37,9.9,11.38,1.59,23.91,2.62,37.57,3.06v45.08Z"/>
        <path d="M7071.4,3224.5c-21.41,7.75-40.2,14-56.35,18.79-16.17,4.78-34.5,7.17-54.99,7.17-35.52,0-63.87-8.32-85.05-24.93-21.17-16.62-34.73-40.87-40.64-72.76h-4.1c-29.61,32.79-61.37,57.84-95.29,75.15-33.93,17.3-74.8,25.95-122.62,25.95-50.55,0-92.11-15.48-124.66-46.45-32.57-30.96-48.84-71.49-48.84-121.58,0-25.97,3.64-49.18,10.93-69.68,7.28-20.49,18.21-38.93,32.79-55.33,11.38-13.66,26.41-25.84,45.08-36.55,18.67-10.7,36.2-19.23,52.6-25.62,20.49-7.74,62.04-22.08,124.67-43.03,62.61-20.94,104.85-37.33,126.71-49.18v-67.62c0-5.92-1.26-17.31-3.76-34.16-2.51-16.84-7.86-32.79-16.05-47.81-9.11-16.85-21.98-31.54-38.59-44.07-16.63-12.51-40.2-18.78-70.7-18.78-20.95,0-40.42,3.53-58.41,10.58-17.99,7.06-30.63,14.46-37.91,22.21,0,9.11,2.15,22.54,6.49,40.3,4.33,17.76,6.49,34.15,6.49,49.18,0,15.95-7.17,30.52-21.52,43.72-14.34,13.22-34.27,19.81-59.77,19.81-22.78,0-39.51-8.08-50.21-24.25-10.71-16.16-16.05-34.26-16.05-54.31s7.4-40.99,22.2-60.11c14.79-19.13,34.04-36.2,57.72-51.24,20.49-12.74,45.31-23.56,74.46-32.44,29.14-8.88,57.6-13.32,85.39-13.32,38.25,0,71.61,2.63,100.08,7.86,28.45,5.24,54.3,16.51,77.53,33.82,23.23,16.85,40.87,39.73,52.94,68.65,12.06,28.92,18.1,66.15,18.1,111.69,0,65.12-.68,122.84-2.05,173.16-1.37,50.33-2.05,105.32-2.05,164.97,0,17.76,3.08,31.88,9.22,42.35,6.15,10.48,15.59,19.36,28.35,26.64,6.83,4.09,17.64,6.38,32.45,6.82,14.79.46,29.94.69,45.42.69v43.72ZM6833,2863.82c-38.71,11.41-72.64,22.6-101.78,33.54-29.15,10.95-56.25,24.64-81.29,41.08-22.78,15.52-40.76,33.9-53.96,55.12-13.21,21.22-19.81,46.44-19.81,75.64,0,37.88,9.91,65.72,29.71,83.52,19.81,17.81,44.97,26.7,75.48,26.7,32.33,0,60.8-7.87,85.39-23.62,24.59-15.75,45.31-34.34,62.16-55.79l4.1-236.18Z"/>
      </g>
    </g>
  </g>
</svg>