<svg xmlns="http://www.w3.org/2000/svg" viewBox="400 100 7200 1850" role="img" aria-label="Mohtaoua">
  <path fill="#181818" d="M2658.73,1913.16l81.67-21.2c140-36.34,180.84-199.25,173.14-339.73-253.63-3.26-455.81,25.33-675.48-110.49-262.84-162.52-291.1-539.43-74.49-762.45,103.22-106.27,243.03-182.62,396.57-183.8l617.37-4.72c8.08,36.09,6.26,61.1,6.25,93.62l-.18,802.32c0,14.97,13.15,29.39,26.06,29.32l410.7-2.25c68-.37,114.53-51.37,114.57-116.14l.26-450.55c.04-69.25-62.65-80.75-133.31-98.91l2.77-106.21,426.06-110.45,3.81,761.4c.35,70.9,55.96,122.63,122.57,122.55l583.84-.75c120.91-.16,235.4-83.1,308.14-184.72-28.24-186.05-53.34-511.85-234.91-572.82-157.15-52.77-326.88-7.59-458.99,83.49-8.48,5.85-33.92,10.54-34.04,1.86l-1.49-108.83c51.91-49.38,109.75-80.6,173.35-109.16,85.19-38.25,169.62-49.29,263.59-49.5,160.55-.36,312.88,58.59,415.35,186.33,66.83,83.3,110.23,184.2,130.16,289.87l49.44,262.15c17.2,91.19,57.28,201.81,145.37,201.73l338.61-.28c61.51-.05,110.75-47.65,110.87-113.13l1.38-757.63c.03-14.92,14.62-36.9,29.82-36.81l485.21,2.84c150.93.88,294.67,56.41,406.8,152.72,108.43,91.12,166.83,211.93,167.36,355.07l1.95,532.2-691.9-1.95c-72.03-.2-127.29-52.21-180.24-99.04-61.01,50.63-129.03,98.73-212.26,99.05l-576.89,2.22c-111.82-6.71-199.75-77.18-268.99-161.97-82.49,73.12-183.1,155.86-301.62,156.79l-642.21,5.03c-84.11.66-151.94-37.92-211.03-100.96-61.92,49.79-128.77,98.21-210.94,98.7l-559.22,3.3c3.1,152.17-45.54,312.18-170.97,391.97-105.89,58.71-218.25,84.35-342.9,77.75l-10.96-107.84ZM2803.34,1416.53c38.6.51,74.97-3.04,110.77-14.2v-769.22s-229.16.06-229.16.06c-178.48.05-318.37,131.81-353.91,304-18.12,87.77-11.09,172.96,19.94,258.69,45.21,124.89,161.33,216.85,296.45,218.63l155.91,2.05ZM6739.23,1415.58l-.71-406.39c-2.25-167.79-112.85-308.6-270.96-358.26-73.71-11.37-141.88-12.96-218.63-10.53l-.25,672.6c9.29,54.14,55.42,101.02,115.23,101.23l375.32,1.35Z"/>
  <path fill="#181818" d="M593.71,562.31c5.01,35.4,5.41,69.3,4.61,105.4l-81.41,24.13c-34.19,10.13-58.17,43.53-58.15,82.11l.29,523.48c.04,63.39,53.3,117.4,119.49,117.46l875.6.7c-.97-225.71,44.56-430.43-205.04-480.48l-291.23-1.5c-3.33-16.92-6.99-43.02-3.13-55.65,28.66-93.9,66.43-177.41,119.38-258.38,143.42-219.29,414.52-271.24,656.33-187.63l.64,119.25c-148.03-34.1-297.99-54.84-394.13,65.35-42.6,53.26-71.16,116.24-83.33,186.34,181.55,30.34,325.81,137.36,414.16,291.8,90.02,157.36,107.3,271.15,100.34,455.99l-1264.58.41c-107.12.04-208.24-37.46-270.72-124.68-43.98-61.39-68.69-139.14-68.87-218.07l-1.8-754.44,431.54,108.39Z"/>
  <path fill="#181818" d="M3472.89,114.94c12.87,54.09-4,117.4-49.24,150.55-48.58,35.6-113.68,34.9-163.61,2.59-50.19-32.48-70.78-96.66-54.48-153.11l267.33-.03Z"/>
  <path fill="#181818" d="M3884.88,114.83c15.34,54.83-3.42,117.16-48.76,149.26-49.74,35.22-114.07,38.55-162.77,4.69-48.95-34.04-70.68-98.78-53.93-153.84l265.46-.1Z"/>
  <path fill="#181818" d="M5311.28,307.38c-2.8-18.08,2.79-51.04,15.83-66.49,8.93-10.58,42.29-13.4,56.27-14.29l83.9-5.35,118.17-14.35,179.37-3.25c-22.85,55.51-78.46,79.09-135.55,82.84l-317.98,20.88Z"/>
</svg>
