<svg xmlns="http://www.w3.org/2000/svg" viewBox="0 0 422.67 443.82">
  <g transform="translate(-993.93, 0)">
    <rect x="993.93" width="422.67" height="443.82" rx="18.53" ry="18.53" fill="#b51636"/>
    <path fill="#fff" d="M1209.38,89.65l-3.08,12.58c-.61,9.33-4.03,15.43-12,21.06-5.37,3.79-10.72,8.45-18.62,8.44-13.67,0-26.93-13.22-23.03-26.49l3.06-10.41c1.08-3.69,2.7-7.23,4.11-10.79,2.35-5.93,4.67-11.63,7.69-17.28l3.81-7.12c1.78-3.33,3.21-6.92,4.59-10.63l2.74-3.29c1.48-4.16,2.94-7.64,7.56-9.83-.32,12.31-7.07,22.48-7.99,32.89-.26,2.94-1.33,5.15-4.48,6.76l.6,13.76c4.52,3.61,8.8,5.27,14.63,5.15,6.86-.14,14.28-3.3,16.47-9.86.72-2.15.09-5.15,4.77-5.06l.07,7.6-2.86-.24c-.68-.06-1.74,1.37-2.2,2.15l4.18.62Z"/>
    <path fill="#fff" d="M1245.26,358.09c.58,5.35-.48,10.87-1.27,15.74l.29,5.11-1.4,13.7-1.67-4.72c1.26-5.82.81-11.01.23-16.79l-.55-5.48-.2-10.73c-.81-2.92-.6-5.82.48-8.35-.59-2.45-.63-5.37-.29-8.43l-1.97-33.83-.59-18.83-.39-42.96.04-14.08c-1,1.32-1.06,1.39-1.11,1.66l-.21,1.07c-.05.26-1.23-1.23-1.12-1.56,1.35-4.3,1.03-12.96-1.52-17.29.59-1.83.28-2.29.13-4.16-.33-4.15.01-9.17.59-13.31,1.79-1.47,2.34-2.86,1.51-4.99,6.3-15.79,15.25-31.77,29.72-42.53,6.34-4.72,15.98-5.83,23.42-7.68l19.34-4.82c1.05-.26,2.77-1.85,2.77-2.77-9.51-7.78-24.62-7.65-33.64.98-4.42,4.23-8.42,8.77-14.42,11.41-2.7-1.64-2.15-5.15-.99-7.48,4.53-9.13,9.99-16.69,16.52-24.7,7.6-9.32,15.73-19.05,28.07-23.16,4.62-1.54,11.76-2.5,16.64-2.02,7.82.78,15.21,5.16,20.96,9.61l15.9,12.28,11.65,11.79c1.5,1.51,3.38,4.32,1.9,6.29l-12.74,17.04c-4.09,5.47-8.91,11.87-15.28,15.16-10.52,1.22-20.2,3.16-30.47,5.31l-47.18,9.88c-.95,8.37-1.03,15.54-1.26,23.46l-.48,16.23c-.41,14.12.61,27.88.67,41.98l.07,18.16c.02,6.19-.58,12.31-.96,18.59-.78,12.91,1.17,25.34,1.18,38.26l.03,36.77-8.99,12.02-8.78,10.1,2.1-6.64c12.72-4.76,8.27-28.39,8.45-28.31l-2.8-1.16c-.32-4.44-1.76-9.17-4.62-13.49l-3.74,6.81,1.68,3.73-1.61-1.6c-.15-.15-4.71,2.75-4.06,8.7ZM1256.52,344.34l3.8,9.36.51-32.96-.69-14.46-.71-8.13-1.66-21.15-4.01-1.65c-.07,5.21-.73,10.08-1.81,15.59-2.02,10.32.4,17.11-2.7,22.62l.55,12.56c.12,2.82,2.31,7.06,3.44,9.93l3.27,8.3Z"/>
    <path fill="#fff" d="M1238.02,336.82c.22,5.3.16,10.15-1.28,14.96-1.96-7.32-.88-13.75-1.32-20.59l-1.52-23.76c-.6-9.36-.29-18.6-.25-27.66l1.18.56.83,11.1c.49,6.55-.3,13.08.47,19.56l1.28,10.84.61,15Z"/>
    <path fill="#fff" d="M1238.52,401.54c1.28-1.69,1.5-2.58,4.16-3.39-1.76,4.12-3.23,5.95-6.5,9.78l.05-3.76.22-48.91c3,2.52,1.13,6.53,1.45,9.62l1.32,12.81c.3,2.87-2.2,7.17.13,10.45-1.54,3.73-1.6,7.99-.83,13.39Z"/>
    <path fill="#fff" d="M1254.63,353.23l-.33,2.78c-.07.57-2.09.88-2.31.35s-.39-1.68-.2-2.3c.56-1.8.38-5.24.58-6.97l.27-2.31c.05-.4,1.25.89,1.42,1.25.59,1.82.86,4.75.57,7.2Z"/>
    <path fill="#fff" d="M1184.6,204.02c-9.95,8.06-18.59,15.96-25.49,26.1-3.33-1.39-7.33-2.65-9.92-4.66-12.22-9.47-22.99-19.42-34.24-29.82-11-10.18-20.82-19.96-31.94-31.65l-.88,31.3c-.36,12.88-.18,25.24.13,37.98l.75,30.4c.37,14.9-.21,29.37-1.13,44.33-1.31,21.49-1.44,42.46-.93,64.04-12.14,10.54-20.11,22.83-33.53,32.73l.41-10.04c.48-11.73-.6-23.03.07-34.81,1.33-23.42,1.46-45.91,1.66-69.26l.64-77.88c.15-17.73-.25-34.58-.89-52.25l-1.22-34.02c1.25-2.63,2.74-5.84,4.2-8.3l7.33-12.35c2.88-4.85,7.39-9.89,10.97-14.19,3.06.88,4.01,1.12,7.31,1.72l3.16,9.25,13.09,15.05c5.92,6.81,12.38,13.17,19.27,19.26l17.74,15.67,12.95,10.64,10.13,8.65,12.36,10.36c4.21,3.53,9.04,6.85,14.1,8.67,6.94-6.27,13.17-11.27,20.19-16.57l8.77-6.63,21.17-15.95,12.48-10.07c.58-.47,2.21-1.05,2.93-1.18.89-.17,1.53,2.42,1,3.1l-3.94,5.06-12.6,16.22-6.98,8.18c-5.93,6.95-14.7,11.13-21.85,16.92l-17.27,13.99ZM1089.21,148.96c-3.41-4.45-4.22-8.04-4.55-13.37-1.78,2.47-2.03,5.74-1.35,8.74.4,1.76,4.18,4.15,5.9,4.63ZM1066.14,336.8c2.68.97,3.45,2.83,3.26,4.87-.15,1.62-1.79,4.02-2.72,4.52-.91-3.02-1.16-4.29-3.57-4.76.83,5.39,1.28,11,3.16,15.28l2.85,6.48c.74-1.19,1.31-3.73,1.39-5.57l.93-23.09.7-12.26,1.96-19.85,2.66-30.42.92-17.78c.53-10.21.13-20.19-.17-30.43-.18-6.25-.78-12.15-2-18.21-2.49,16.31,1.19,37.15-.66,51.42l-1.54,11.9c-8.14,1.51-7.88,8.99-7.46,16.22l.76,13.36,2.12,11.03c.1.54-.18,1.96.26,2.01l1.76.22-1.71,5.4c1.82,2.28,2.07,5.62.15,7.65l1.36,2.42c.3.54-1.38,1.78-2.03,1.96-3.16.9-5.1,6.62-2.36,7.61ZM1052.96,284.77l-.32-19.82c-.1-6.35-.8-12.67-.47-18.85l.44-8.13.04-2.13c0-.44-1.19-.99-1.69-1.11l.4,87.43,1.16-19.78.19-8.57.26-9.04Z"/>
  </g>
</svg>
